<svg width="915" height="84" viewBox="0 0 915 84" fill="none" xmlns="http://www.w3.org/2000/svg">
<path d="M0.966614 26L913.967 24" stroke="black" stroke-width="2"/>
<line x1="894.469" y1="13.1321" x2="914.354" y2="24.6912" stroke="black" stroke-width="2"/>
<line y1="-1" x2="23" y2="-1" transform="matrix(-0.864538 0.502567 0.502567 0.864538 913.851 24.9966)" stroke="black" stroke-width="2"/>
<line y1="-1" x2="22.1412" y2="-1" transform="matrix(-0.852908 0.522061 0.483315 0.875446 19.851 15.9966)" stroke="black" stroke-width="2"/>
<line y1="-1" x2="22.1412" y2="-1" transform="matrix(0.852908 0.522061 -0.483315 0.875446 0.966614 26.9966)" stroke="black" stroke-width="2"/>
<line x1="469.967" y1="4.37114e-08" x2="469.967" y2="50" stroke="black" stroke-width="2"/>
<line x1="544.967" y1="4.37114e-08" x2="544.967" y2="50" stroke="black" stroke-width="2"/>
<line x1="94.9666" y1="4.37114e-08" x2="94.9666" y2="50" stroke="black" stroke-width="2"/>
<line x1="619.967" y1="4.37114e-08" x2="619.967" y2="50" stroke="black" stroke-width="2"/>
<line x1="169.967" y1="4.37114e-08" x2="169.967" y2="50" stroke="black" stroke-width="2"/>
<line x1="694.967" y1="4.37114e-08" x2="694.967" y2="50" stroke="black" stroke-width="2"/>
<line x1="244.967" y1="4.37114e-08" x2="244.967" y2="50" stroke="black" stroke-width="2"/>
<line x1="769.967" y1="4.37114e-08" x2="769.967" y2="50" stroke="black" stroke-width="2"/>
<line x1="319.967" y1="4.37114e-08" x2="319.967" y2="50" stroke="black" stroke-width="2"/>
<line x1="844.967" y1="4.37114e-08" x2="844.967" y2="50" stroke="black" stroke-width="2"/>
<line x1="394.967" y1="4.37114e-08" x2="394.967" y2="50" stroke="black" stroke-width="2"/>
<path d="M470.636 79.277C469.466 79.277 468.462 78.9811 467.624 78.3892C466.791 77.7926 466.149 76.9332 465.7 75.8111C465.254 74.6842 465.032 73.3277 465.032 71.7415C465.037 70.1553 465.262 68.8059 465.707 67.6932C466.156 66.5758 466.798 65.7235 467.631 65.1364C468.469 64.5492 469.471 64.2557 470.636 64.2557C471.8 64.2557 472.802 64.5492 473.64 65.1364C474.478 65.7235 475.12 66.5758 475.565 67.6932C476.014 68.8106 476.239 70.16 476.239 71.7415C476.239 73.3324 476.014 74.6913 475.565 75.8182C475.12 76.9403 474.478 77.7973 473.64 78.3892C472.807 78.9811 471.805 79.277 470.636 79.277ZM470.636 77.054C471.545 77.054 472.262 76.6065 472.788 75.7116C473.318 74.812 473.583 73.4886 473.583 71.7415C473.583 70.5862 473.462 69.6155 473.221 68.8295C472.979 68.0436 472.638 67.4517 472.198 67.054C471.758 66.6515 471.237 66.4503 470.636 66.4503C469.731 66.4503 469.016 66.9001 468.491 67.7997C467.965 68.6946 467.7 70.0085 467.695 71.7415C467.691 72.9015 467.807 73.8769 468.043 74.6676C468.285 75.4583 468.626 76.0549 469.066 76.4574C469.506 76.8551 470.03 77.054 470.636 77.054Z" fill="black"/>
<path d="M546.175 64.4545V79H543.54V67.0185H543.455L540.053 69.1918V66.777L543.668 64.4545H546.175Z" fill="black"/>
<path d="M88.8999 70.669V72.7855H82.3516V70.669H88.8999ZM96.6325 79.1989C95.6855 79.1989 94.8379 79.0213 94.0898 78.6662C93.3417 78.3063 92.7475 77.8139 92.3072 77.1889C91.8716 76.5639 91.6396 75.849 91.6111 75.044H94.168C94.2153 75.6406 94.4734 76.1283 94.9421 76.5071C95.4109 76.8812 95.9743 77.0682 96.6325 77.0682C97.1486 77.0682 97.6078 76.9498 98.0103 76.7131C98.4128 76.4763 98.73 76.1473 98.962 75.7259C99.194 75.3045 99.3076 74.8239 99.3029 74.2841C99.3076 73.7348 99.1916 73.2472 98.9549 72.821C98.7182 72.3949 98.3938 72.0611 97.9819 71.8196C97.57 71.5734 97.0965 71.4503 96.5614 71.4503C96.1258 71.4455 95.6973 71.526 95.2759 71.6918C94.8545 71.8575 94.5207 72.0753 94.2745 72.3452L91.8952 71.9545L92.6552 64.4545H101.093V66.6562H94.8356L94.4165 70.5128H94.5018C94.7717 70.1955 95.1528 69.9328 95.6452 69.7244C96.1377 69.5114 96.6774 69.4048 97.2646 69.4048C98.1452 69.4048 98.9312 69.6132 99.6225 70.0298C100.314 70.4418 100.858 71.0099 101.256 71.7344C101.654 72.4588 101.853 73.2874 101.853 74.2202C101.853 75.1813 101.63 76.0384 101.185 76.7912C100.745 77.5393 100.132 78.1288 99.3455 78.5597C98.5643 78.9858 97.6599 79.1989 96.6325 79.1989Z" fill="#18099C"/>
<path d="M615.259 79V77.0966L620.309 72.1463C620.792 71.6586 621.194 71.2254 621.516 70.8466C621.838 70.4678 622.08 70.1009 622.241 69.7457C622.402 69.3906 622.482 69.0118 622.482 68.6094C622.482 68.1501 622.378 67.7571 622.17 67.4304C621.961 67.099 621.675 66.8433 621.31 66.6634C620.946 66.4834 620.531 66.3935 620.067 66.3935C619.589 66.3935 619.17 66.4929 618.81 66.6918C618.451 66.8859 618.171 67.1629 617.972 67.5227C617.778 67.8826 617.681 68.3111 617.681 68.8082H615.174C615.174 67.8849 615.385 67.0824 615.806 66.4006C616.228 65.7187 616.808 65.1908 617.546 64.8168C618.29 64.4427 619.142 64.2557 620.103 64.2557C621.078 64.2557 621.935 64.438 622.674 64.8026C623.413 65.1671 623.986 65.6667 624.393 66.3011C624.805 66.9356 625.011 67.66 625.011 68.4744C625.011 69.0189 624.906 69.554 624.698 70.0795C624.49 70.6051 624.123 71.1875 623.597 71.8267C623.076 72.4659 622.345 73.2401 621.403 74.1491L618.896 76.6989V76.7983H625.231V79H615.259Z" fill="black"/>
<path d="M163.9 70.669V72.7855H157.352V70.669H163.9ZM166.313 76.3011V74.206L172.485 64.4545H174.232V67.4375H173.167L169.012 74.0213V74.1349H177.627V76.3011H166.313ZM173.252 79V75.6619L173.28 74.7244V64.4545H175.766V79H173.252Z" fill="black"/>
<path d="M695.479 79.1989C694.457 79.1989 693.548 79.0237 692.752 78.6733C691.961 78.3229 691.336 77.8352 690.877 77.2102C690.418 76.5852 690.174 75.8632 690.146 75.044H692.816C692.84 75.437 692.97 75.7803 693.207 76.0739C693.443 76.3627 693.758 76.5876 694.151 76.7486C694.544 76.9096 694.985 76.9901 695.472 76.9901C695.993 76.9901 696.455 76.9001 696.857 76.7202C697.26 76.5355 697.575 76.2798 697.802 75.9531C698.029 75.6264 698.14 75.25 698.136 74.8239C698.14 74.3835 698.027 73.9953 697.795 73.6591C697.563 73.3229 697.227 73.0601 696.786 72.8707C696.351 72.6813 695.825 72.5866 695.21 72.5866H693.924V70.5554H695.21C695.716 70.5554 696.159 70.4678 696.538 70.2926C696.921 70.1174 697.222 69.8712 697.44 69.554C697.657 69.232 697.764 68.8603 697.759 68.4389C697.764 68.027 697.672 67.6695 697.482 67.3665C697.298 67.0587 697.035 66.8196 696.694 66.6491C696.358 66.4787 695.962 66.3935 695.508 66.3935C695.063 66.3935 694.651 66.474 694.272 66.6349C693.893 66.7959 693.588 67.0256 693.356 67.3239C693.124 67.6174 693.001 67.9678 692.987 68.375H690.451C690.47 67.5606 690.704 66.8456 691.154 66.2301C691.609 65.6098 692.215 65.1269 692.972 64.7812C693.73 64.4309 694.58 64.2557 695.522 64.2557C696.493 64.2557 697.335 64.438 698.05 64.8026C698.77 65.1624 699.326 65.6477 699.719 66.2585C700.112 66.8693 700.309 67.544 700.309 68.2827C700.314 69.1018 700.072 69.7884 699.585 70.3423C699.102 70.8963 698.467 71.2585 697.681 71.429V71.5426C698.704 71.6847 699.487 72.0634 700.032 72.679C700.581 73.2898 700.853 74.0497 700.849 74.9588C700.849 75.7732 700.617 76.5024 700.153 77.1463C699.693 77.7855 699.059 78.2874 698.249 78.652C697.444 79.0166 696.521 79.1989 695.479 79.1989Z" fill="black"/>
<path d="M238.9 70.669V72.7855H232.352V70.669H238.9ZM246.659 79.1989C245.636 79.1989 244.727 79.0237 243.932 78.6733C243.141 78.3229 242.516 77.8352 242.057 77.2102C241.598 76.5852 241.354 75.8632 241.325 75.044H243.996C244.019 75.437 244.15 75.7803 244.386 76.0739C244.623 76.3627 244.938 76.5876 245.331 76.7486C245.724 76.9096 246.164 76.9901 246.652 76.9901C247.173 76.9901 247.634 76.9001 248.037 76.7202C248.439 76.5355 248.754 76.2798 248.982 75.9531C249.209 75.6264 249.32 75.25 249.315 74.8239C249.32 74.3835 249.206 73.9953 248.974 73.6591C248.742 73.3229 248.406 73.0601 247.966 72.8707C247.53 72.6813 247.005 72.5866 246.389 72.5866H245.104V70.5554H246.389C246.896 70.5554 247.339 70.4678 247.717 70.2926C248.101 70.1174 248.402 69.8712 248.619 69.554C248.837 69.232 248.944 68.8603 248.939 68.4389C248.944 68.027 248.851 67.6695 248.662 67.3665C248.477 67.0587 248.214 66.8196 247.874 66.6491C247.537 66.4787 247.142 66.3935 246.687 66.3935C246.242 66.3935 245.83 66.474 245.452 66.6349C245.073 66.7959 244.768 67.0256 244.536 67.3239C244.303 67.6174 244.18 67.9678 244.166 68.375H241.631C241.65 67.5606 241.884 66.8456 242.334 66.2301C242.788 65.6098 243.394 65.1269 244.152 64.7812C244.91 64.4309 245.759 64.2557 246.702 64.2557C247.672 64.2557 248.515 64.438 249.23 64.8026C249.95 65.1624 250.506 65.6477 250.899 66.2585C251.292 66.8693 251.489 67.544 251.489 68.2827C251.493 69.1018 251.252 69.7884 250.764 70.3423C250.281 70.8963 249.647 71.2585 248.861 71.429V71.5426C249.884 71.6847 250.667 72.0634 251.212 72.679C251.761 73.2898 252.033 74.0497 252.028 74.9588C252.028 75.7732 251.796 76.5024 251.332 77.1463C250.873 77.7855 250.239 78.2874 249.429 78.652C248.624 79.0166 247.701 79.1989 246.659 79.1989Z" fill="black"/>
<path d="M764.996 76.3011V74.206L771.168 64.4545H772.915V67.4375H771.85L767.695 74.0213V74.1349H776.31V76.3011H764.996ZM771.935 79V75.6619L771.964 74.7244V64.4545H774.45V79H771.935Z" fill="black"/>
<path d="M313.9 70.669V72.7855H307.352V70.669H313.9ZM316.068 79V77.0966L321.118 72.1463C321.6 71.6586 322.003 71.2254 322.325 70.8466C322.647 70.4678 322.888 70.1009 323.049 69.7457C323.21 69.3906 323.291 69.0118 323.291 68.6094C323.291 68.1501 323.187 67.7571 322.978 67.4304C322.77 67.099 322.484 66.8433 322.119 66.6634C321.754 66.4834 321.34 66.3935 320.876 66.3935C320.398 66.3935 319.979 66.4929 319.619 66.6918C319.259 66.8859 318.98 67.1629 318.781 67.5227C318.587 67.8826 318.49 68.3111 318.49 68.8082H315.983C315.983 67.8849 316.193 67.0824 316.615 66.4006C317.036 65.7187 317.616 65.1908 318.355 64.8168C319.098 64.4427 319.95 64.2557 320.912 64.2557C321.887 64.2557 322.744 64.438 323.483 64.8026C324.221 65.1671 324.794 65.6667 325.201 66.3011C325.613 66.9356 325.819 67.66 325.819 68.4744C325.819 69.0189 325.715 69.554 325.507 70.0795C325.298 70.6051 324.931 71.1875 324.406 71.8267C323.885 72.4659 323.154 73.2401 322.211 74.1491L319.704 76.6989V76.7983H326.039V79H316.068Z" fill="black"/>
<path d="M845.316 79.1989C844.369 79.1989 843.522 79.0213 842.773 78.6662C842.025 78.3063 841.431 77.8139 840.991 77.1889C840.555 76.5639 840.323 75.849 840.295 75.044H842.852C842.899 75.6406 843.157 76.1283 843.626 76.5071C844.094 76.8812 844.658 77.0682 845.316 77.0682C845.832 77.0682 846.291 76.9498 846.694 76.7131C847.096 76.4763 847.414 76.1473 847.646 75.7259C847.878 75.3045 847.991 74.8239 847.987 74.2841C847.991 73.7348 847.875 73.2472 847.638 72.821C847.402 72.3949 847.077 72.0611 846.665 71.8196C846.254 71.5734 845.78 71.4503 845.245 71.4503C844.809 71.4455 844.381 71.526 843.96 71.6918C843.538 71.8575 843.204 72.0753 842.958 72.3452L840.579 71.9545L841.339 64.4545H849.776V66.6562H843.519L843.1 70.5128H843.185C843.455 70.1955 843.836 69.9328 844.329 69.7244C844.821 69.5114 845.361 69.4048 845.948 69.4048C846.829 69.4048 847.615 69.6132 848.306 70.0298C848.997 70.4418 849.542 71.0099 849.94 71.7344C850.337 72.4588 850.536 73.2874 850.536 74.2202C850.536 75.1813 850.314 76.0384 849.869 76.7912C849.428 77.5393 848.815 78.1288 848.029 78.5597C847.248 78.9858 846.344 79.1989 845.316 79.1989Z" fill="#18099C"/>
<path d="M388.9 70.669V72.7855H382.352V70.669H388.9ZM397.492 64.4545V79H394.857V67.0185H394.772L391.37 69.1918V66.777L394.985 64.4545H397.492Z" fill="black"/>
</svg>
