<svg xmlns="http://www.w3.org/2000/svg" version="1.1" xmlns:xlink="http://www.w3.org/1999/xlink" width="653" height="631"><svg xmlns="http://www.w3.org/2000/svg" version="1.1" xmlns:xlink="http://www.w3.org/1999/xlink" width="653" height="631"><svg width="653" height="631" viewBox="0 0 653 631" fill="none" xmlns="http://www.w3.org/2000/svg">
<g filter="url(#filter0_d_11_112)">
<path d="M317 137.743C313.454 138.186 293.8 149.63 289.382 152.223C288.786 152.573 288.17 152.855 287.516 153.077L263.049 161.386C262.352 161.623 261.649 161.78 260.917 161.858C255.228 162.463 228.938 165.243 225.819 165.243C222.319 165.243 197.5 159.743 194.5 161.243C191.5 162.743 191.5 171.243 189.5 173.743C187.5 176.243 180 180.243 179.5 182.243C179.125 183.743 182.692 197.07 184.495 203.629C185.137 205.961 184.929 208.447 183.894 210.633L173.096 233.43C172.377 234.947 172.05 236.605 172.166 238.28C172.798 247.438 175.243 278.243 179.5 278.243C184.5 278.243 193 243.743 204 238.243C215 232.743 232.5 244.743 232.5 244.743C232.5 244.743 243.5 253.243 251 253.243C258.5 253.243 271.5 234.743 277 230.743C282.5 226.743 293.5 216.243 307 224.743C320.5 233.243 311.275 235.243 316.5 241.743C318.896 244.723 322.038 245.601 324.738 245.678C328.362 245.781 332.244 246.159 335.057 248.445L338.5 251.243C338.5 251.243 350.5 262.743 353 268.743C354.96 273.446 342.17 292.592 336.552 300.646C334.943 302.953 334.321 305.813 334.885 308.568L337.814 322.89C338.259 325.063 337.968 327.323 336.988 329.313L323.029 357.653C322.352 359.028 321.999 360.516 322.014 362.049C322.098 371.036 322.699 403.365 327 406.314C331.138 409.151 351.026 384.988 357.763 376.568C359.227 374.739 361.251 373.473 363.531 372.938C370.08 371.403 383.615 368.004 385.5 365.743C388 362.743 400 329.743 400 329.743C400 329.743 406 302.243 407.5 298.243C409 294.243 421 274.743 424 264.243C427 253.743 422 240.743 428.5 230.743C435 220.743 458 210.243 460.5 206.743C463 203.243 468.5 187.743 470.5 184.243C472.5 180.743 488 167.243 494 161.743C499.105 157.063 512.535 145.868 516.428 142.633C517.143 142.038 517.932 141.553 518.784 141.18L544.668 129.827C545.551 129.439 546.374 128.926 547.111 128.303L569.935 108.99C571.287 107.846 572.919 107.081 574.664 106.775L609 100.743C609 100.743 646.5 99.2426 648.5 89.7426C650.022 82.5139 629.542 69.4953 619.662 63.6834C616.499 61.8227 614.5 58.4565 614.5 54.7865V42.1181C614.5 39.9284 615.216 37.8031 616.538 36.057C620.898 30.2944 630.833 17.0756 632 14.7426C633.5 11.7426 635.5 4.24264 632 1.24264C628.5 -1.75736 620.5 1.24264 617.5 4.24264C614.5 7.24264 583.5 42.2427 573.5 42.2427C563.5 42.2427 558 42.2427 551 44.2426C544 46.2426 512.5 75.7427 499.5 77.7427C486.5 79.7427 482.5 71.7427 474.5 74.7427C466.5 77.7427 456 89.2427 453.5 92.2427C451 95.2427 436.5 107.743 433.5 111.243C430.5 114.743 423 122.243 415.5 126.243C408 130.243 388 139.743 380 141.243C372 142.743 339.5 140.243 335 139.243C330.5 138.243 321 137.243 317 137.743Z" fill="#43AAFE"></path>
<path d="M88.9611 48.5433C84.2875 49.0792 81 53.098 81 57.8023V396.814C81 402.138 85.1378 406.546 90.4447 406.971C115.237 408.956 183.193 416.119 225.819 437.243C270.733 459.5 303.871 482.249 317.234 491.92C321.064 494.692 326.31 494.582 330.022 491.653C342.636 481.703 373.194 458.76 412.5 437.243C451.756 415.752 535.642 404.111 563.099 400.767C568.186 400.147 572 395.848 572 390.723V285.743V150.226C572 142.965 564.506 138.124 557.887 141.111L532.066 152.762C531.358 153.081 530.689 153.482 530.074 153.957L507 171.743L488.249 189.579C487.1 190.672 486.231 192.016 485.691 193.508C483.763 198.845 478.876 211.97 476.5 214.743C473.5 218.243 451.5 230.743 448.5 235.743C445.5 240.743 443.5 250.743 441.5 258.743C439.788 265.591 435.877 278.303 434.787 281.82C434.595 282.44 434.348 283.023 434.038 283.592C432.105 287.144 424.669 300.773 422.5 304.243C420 308.243 416.5 328.243 414.5 334.743C412.5 341.243 405.5 367.243 399 374.243C393.848 379.791 378.016 385.968 371.671 388.291C369.923 388.931 368.386 389.99 367.187 391.413C359.451 400.596 329.197 435.642 320.5 432.743C310.5 429.409 307 400.743 305.5 392.243C304 383.743 304 358.243 305.5 353.743C306.623 350.375 314.467 338.885 318.343 333.317C319.726 331.329 320.362 328.921 320.187 326.505C319.786 320.982 319.279 310.61 320.5 304.243C322.225 295.243 336 280.743 336 274.743C336 271.447 332.832 267.246 329.976 264.129C327.385 261.301 323.148 260.825 319.326 260.501C316.83 260.29 313.767 259.452 310.5 257.243C302.368 251.743 301.5 235.243 295 235.243C288.5 235.243 267.5 254.243 267.5 254.243C267.5 254.243 256.134 265.743 249.5 265.743C242.866 265.743 232.5 259.243 232.5 259.243C232.5 259.243 216 248.743 210.5 251.243C205.749 253.402 200.251 269.369 198.842 273.675C198.608 274.39 198.316 275.061 197.928 275.706C195.166 280.298 183.055 299.743 176 299.743C168 299.743 155.5 245.743 156.5 238.243C157.27 232.468 163.968 217.209 167.009 210.493C167.966 208.381 168.184 206.023 167.653 203.765C166.273 197.901 163.765 186.287 164.5 182.243C165.5 176.743 165 171.243 166.5 169.243C168 167.243 175 165.243 177.5 163.243C180 161.243 182.5 148.743 185.5 147.743C188.5 146.743 225 150.243 255 145.743C285 141.243 301.736 136.743 305.368 129.243C309 121.743 292.5 103.243 215.5 70.2426C155.458 44.5105 107.273 46.4436 88.9611 48.5433Z" fill="#43AAFE"></path>
<path d="M50 111.743C50 215.104 50 355.296 50 406.749C50 418.254 58.4851 427.917 69.8412 429.758C101.256 434.849 162.359 446.095 196.362 461.243C231.557 476.922 285.111 508.49 309.988 523.479C318.189 528.421 328.586 527.881 336.28 522.183C359.82 504.749 410.902 468.212 445 453.243C490.557 433.243 563.015 428.72 599 433.243" stroke="#43AAFE" stroke-width="24" stroke-linecap="round"></path>
<path d="M10.9442 500.627C11.783 499.105 12.8967 497.829 14.2853 496.799C14.5596 496.987 14.9541 497.338 15.4688 497.854C16.0092 498.364 16.5549 498.925 17.1059 499.537C19.5538 494.852 21.593 491.03 23.2235 488.07C25.2499 484.392 27.0439 481.297 28.6055 478.785L25.1759 475.703C25.3149 474.927 25.5353 474.124 25.8371 473.294C26.1483 472.447 26.5018 471.664 26.8976 470.946C27.1992 470.398 27.5694 469.827 28.0082 469.232C30.3521 469.773 33.183 470.94 36.5011 472.734C39.8448 474.521 43.1137 476.505 46.3078 478.685C49.3245 480.744 51.4303 482.382 52.6251 483.597C53.1852 484.756 53.6277 485.847 53.9525 486.869C54.3029 487.885 54.5457 489.016 54.6807 490.261C54.021 491.459 53.1918 492.682 52.1931 493.931C51.2199 495.173 50.2194 496.244 49.1913 497.143C48.1794 498.053 47.3142 498.616 46.5959 498.832C46.1212 498.767 45.6298 498.631 45.1215 498.426C44.6227 498.203 44.0426 497.866 43.3812 497.414C42.8004 497.018 42.3286 496.625 41.9657 496.236C41.6284 495.841 41.3355 495.406 41.087 494.93L43.3462 488.775C42.4241 487.91 41.2613 486.999 39.8578 486.041C39.4707 485.777 39.0694 485.538 38.6539 485.325C37.2228 487.762 35.0307 490.915 32.0776 494.784C36.0076 496.595 39.3191 498.22 42.012 499.658C42.0824 501.142 41.7029 502.636 40.8735 504.142C40.3268 505.134 39.67 506.004 38.9029 506.751C38.1359 507.499 37.5001 507.948 36.9957 508.098C36.2522 507.755 35.4126 507.265 34.4769 506.626C33.267 505.8 32.07 504.83 30.8858 503.716C29.7178 502.613 28.687 501.462 27.7934 500.263L26.2771 502.23C25.4144 503.312 24.5852 504.394 23.7897 505.475L39.6301 514.98C39.7402 515.385 39.6779 516.002 39.4434 516.83C39.225 517.67 38.8802 518.517 38.4089 519.373C37.6549 520.741 36.7371 521.763 35.6554 522.437C34.5737 523.111 33.4498 523.438 32.2838 523.419C31.1433 523.394 30.0891 523.051 29.1212 522.391C28.1533 521.73 26.953 520.605 25.5203 519.015C24.1132 517.419 22.8077 515.739 21.6037 513.976C20.4159 512.224 19.6253 510.778 19.232 509.638C17.7359 510.5 16.3463 510.988 15.0632 511.101C13.7963 511.225 12.4408 510.865 10.9969 510.02C10.3692 509.427 9.93936 508.616 9.70733 507.587C9.4753 506.557 9.46322 505.431 9.67109 504.208C9.87896 502.984 10.3033 501.791 10.9442 500.627Z" fill="url(#paint0_linear_11_112)"></path>
<path d="M47.1264 521.061C48.4468 518.164 49.4772 515.997 50.2176 514.561C50.9661 513.106 52.141 511.021 53.7424 508.305L50.9909 506.249C51.1603 504.892 51.3921 503.727 51.6861 502.753C51.9972 501.789 52.4808 500.587 53.137 499.148C53.5225 499.053 54.1069 499.014 54.89 499.032C55.6983 499.041 56.5929 499.166 57.5736 499.407C58.5795 499.64 59.5332 500.011 60.4345 500.52C62.4924 501.682 63.7359 502.965 64.1651 504.369C64.6112 505.783 64.4131 507.414 63.5706 509.263C63.1008 510.293 62.3203 511.607 61.2292 513.203C59.465 515.76 58.5505 517.11 58.4857 517.252C58.4452 517.341 58.4642 517.463 58.5428 517.619C58.6294 517.757 58.7408 517.865 58.8769 517.942C59.0299 518.028 59.1603 518.024 59.268 517.928C59.2186 517.99 59.8233 517.203 61.082 515.567C62.6931 513.393 64.1061 511.677 65.3211 510.419C66.5531 509.17 67.9899 508.317 69.6317 507.858C71.2734 507.4 73.0722 507.723 75.028 508.827C77.443 510.191 78.8542 511.904 79.2614 513.966C79.6767 516.011 79.3376 518.233 78.244 520.632C77.3772 522.533 76.1071 524.475 74.4337 526.458C74.3932 526.547 74.4122 526.669 74.4907 526.825C74.5774 526.964 74.6887 527.071 74.8248 527.148C74.9779 527.234 75.1083 527.23 75.216 527.134L76.2536 525.843C78.0647 523.559 79.6649 521.713 81.054 520.308C82.4601 518.912 84.0545 517.924 85.8371 517.344C87.6449 516.756 89.5267 517.014 91.4826 518.118C94.0507 519.568 95.5031 521.472 95.8398 523.83C96.1935 526.197 95.775 528.687 94.5842 531.3C93.7418 533.148 92.7252 534.909 91.5345 536.583C90.3608 538.267 89.2993 539.634 88.35 540.684C87.4177 541.745 86.3112 542.952 85.0307 544.307L85.0574 544.39L89.5863 544.869C90.3702 546.808 90.4231 548.827 89.745 550.925C89.6883 551.049 89.0707 551.348 87.8922 551.823C86.7219 552.279 85.3292 552.543 83.7143 552.614C82.1244 552.677 80.5216 552.253 78.9059 551.341C77.2902 550.428 76.1787 549.231 75.5714 547.748C74.9641 546.266 75.1587 544.431 76.155 542.245C77.2648 539.811 78.4455 537.338 79.697 534.826C80.9736 532.307 82.1712 530.078 83.2899 528.14C83.1142 527.728 82.7753 527.369 82.2731 527.063C81.528 527.291 80.3758 528.059 78.8167 529.369C77.2656 530.66 75.7173 532.11 74.1719 533.718C72.6345 535.308 71.5297 536.606 70.8574 537.612C70.3016 539.488 69.8815 541.418 69.5971 543.403C69.0156 543.834 68.1554 543.985 67.0167 543.856C65.878 543.727 64.6113 543.269 63.2167 542.482C61.9582 541.771 61.0204 541.107 60.4033 540.491C59.7862 539.874 59.3942 539.373 59.2274 538.989C59.0776 538.614 59.0189 538.391 59.0513 538.32C59.1072 538.15 59.255 537.708 59.4948 536.995C59.7427 536.263 60.1121 535.265 60.603 534C61.1021 532.718 61.712 531.286 62.433 529.704C63.1215 528.193 64.0948 526.363 65.3528 524.213C65.4994 523.938 65.8582 523.292 66.4293 522.273C67.0004 521.255 67.4844 520.311 67.8813 519.44C67.7056 519.028 67.3667 518.669 66.8645 518.363C66.4701 518.431 64.9899 519.449 62.424 521.42C59.858 523.39 58.0988 524.81 57.1462 525.68C56.9988 525.909 56.8724 526.14 56.7671 526.371C56.3621 527.259 55.9429 528.531 55.5094 530.186C55.0841 531.822 54.7628 533.395 54.5457 534.904C53.9641 535.335 53.104 535.486 51.9652 535.357C50.8265 535.228 49.5599 534.77 48.1653 533.983C46.9067 533.272 45.9434 532.594 45.2753 531.949C44.6242 531.313 44.1982 530.793 43.9974 530.389C43.8047 529.967 43.7204 529.73 43.7447 529.677C43.8006 529.507 43.9485 529.065 44.1883 528.352C44.4362 527.62 44.8056 526.622 45.2965 525.357C45.7955 524.075 46.4055 522.643 47.1264 521.061Z" fill="url(#paint1_linear_11_112)"></path>
<path d="M99.3044 532.431C99.3688 531.07 99.5105 529.893 99.7296 528.901C99.9663 527.918 100.357 526.684 100.903 525.199C101.282 525.071 101.852 524.988 102.613 524.95C103.381 524.892 104.256 524.938 105.239 525.086C106.223 525.233 107.185 525.522 108.127 525.95C110.279 526.929 111.623 528.098 112.162 529.455C112.718 530.821 112.647 532.458 111.946 534.364C111.556 535.428 110.876 536.798 109.907 538.476C108.338 541.164 107.527 542.582 107.473 542.728C107.44 542.82 107.468 542.94 107.559 543.088C107.656 543.218 107.776 543.316 107.918 543.38C108.078 543.453 108.209 543.438 108.309 543.333L108.98 542.355L110.425 540.284C112.542 537.289 114.847 535.139 117.339 533.833C119.838 532.51 122.394 532.442 125.007 533.631C126.962 534.521 128.392 535.685 129.295 537.124C130.223 538.551 130.7 540.106 130.726 541.787C130.758 543.449 130.461 545.133 129.835 546.838C128.987 549.148 127.82 551.645 126.336 554.329C124.859 556.995 123.307 559.413 121.68 561.583C120.091 563.706 118.225 565.114 116.082 565.808C113.964 566.491 111.704 566.287 109.305 565.195C108.433 564.799 107.465 564.187 106.4 563.36C105.345 562.559 104.057 561.406 102.535 559.9L99.5593 564.612L99.5924 564.691L104.817 566.652C104.973 567.3 105.003 568.009 104.907 568.779C104.822 569.575 104.673 570.459 104.461 571.433L104.339 572.019C104.312 572.092 103.797 572.254 102.792 572.503C101.781 572.77 100.532 572.865 99.0459 572.788C97.5529 572.729 95.9619 572.315 94.2731 571.547C90.451 569.808 89.311 566.839 90.8532 562.64L91.5502 560.743C93.6042 555.151 95.4682 550.19 97.1421 545.859C98.8405 541.518 100.469 537.648 102.029 534.249L99.3044 532.431ZM111.895 557.804C113.444 555.62 115.141 552.017 116.986 546.993C117.303 546.132 117.514 545.415 117.621 544.842C117.407 544.125 116.918 543.592 116.154 543.244C115.824 543.351 114.439 544.411 111.998 546.424C109.564 548.419 107.737 549.974 106.519 551.089L106.034 552.409C106.756 553.55 107.672 554.641 108.784 555.682C109.902 556.705 110.799 557.37 111.475 557.677C111.635 557.75 111.775 557.792 111.895 557.804Z" fill="url(#paint2_linear_11_112)"></path>
<path d="M131.638 555.191C132.659 551.807 134.075 549.069 135.886 546.979C137.698 544.888 139.907 543.571 142.514 543.026C145.127 542.463 148.089 542.8 151.401 544.038C155.06 545.405 157.72 547.18 159.383 549.362C161.051 551.525 161.925 553.995 162.003 556.771C162.1 559.553 161.61 562.731 160.533 566.302C159.557 569.537 158.127 572.217 156.244 574.343C154.385 576.457 152.116 577.836 149.439 578.479C146.785 579.11 143.848 578.824 140.628 577.621C135.652 575.761 132.519 572.853 131.229 568.896C129.944 564.92 130.081 560.352 131.638 555.191ZM144.233 569.823C145.166 570.172 145.755 570.309 146.002 570.235C146.648 569.644 147.287 568.707 147.918 567.424C148.55 566.141 149.105 564.705 149.585 563.116C150.025 561.657 150.345 560.258 150.546 558.918C150.752 557.559 150.8 556.454 150.691 555.602C150.563 555.283 150.214 554.955 149.644 554.617C149.08 554.261 148.441 553.949 147.728 553.683C146.795 553.334 146.123 553.197 145.713 553.273C144.314 554.539 143.182 556.603 142.319 559.464C141.913 560.81 141.599 562.222 141.377 563.7C141.155 565.178 141.028 566.545 140.995 567.802C141.141 568.127 141.533 568.481 142.17 568.865C142.813 569.23 143.501 569.55 144.233 569.823Z" fill="url(#paint3_linear_11_112)"></path>
<path d="M165.815 561.133C165.625 559.336 165.784 557.324 166.293 555.096C167.126 553.811 168.236 552.848 169.623 552.207C171.01 551.565 172.587 551.494 174.354 551.994C175.481 552.313 176.404 552.827 177.123 553.537C177.845 554.228 178.436 555.145 178.895 556.288C179.59 558.066 179.919 560.348 179.883 563.136C179.846 565.578 179.635 568.386 179.25 571.561C178.889 574.723 178.397 577.665 177.775 580.388L178.868 580.727C180.239 578.318 181.431 575.989 182.444 573.742C183.457 571.494 184.452 568.756 185.43 565.525L182.253 563.927C182.206 562.82 182.211 561.878 182.268 561.104C182.329 560.31 182.457 559.485 182.653 558.628C182.766 558.133 183.27 557.678 184.165 557.262C185.065 556.827 186.157 556.558 187.441 556.455C188.743 556.357 190.034 556.489 191.312 556.851C196.142 558.217 197.994 561.365 196.868 566.297C196.507 567.878 195.773 569.515 194.667 571.208C194.887 575.325 194.696 579.933 194.092 585.033L194.593 585.205C195.78 583.595 197.041 581.316 198.374 578.369C199.73 575.407 200.713 572.594 201.321 569.928L198.682 568.604C198.635 567.496 198.64 566.555 198.697 565.78C198.758 564.987 198.886 564.162 199.082 563.305C199.195 562.81 199.652 562.341 200.453 561.899C201.278 561.443 202.294 561.152 203.503 561.028C204.716 560.885 205.943 560.988 207.183 561.339C212.126 562.737 214 566.054 212.805 571.291C212.07 574.509 210.715 577.683 208.74 580.814C206.765 583.944 204.605 586.699 202.262 589.076C199.918 591.454 197.814 593.221 195.95 594.376C194.95 594.377 193.904 594.223 192.814 593.915C191.517 593.548 190.299 593.011 189.16 592.304C188.036 591.621 187.174 590.84 186.574 589.961C186.547 589.467 186.599 588.143 186.73 585.991C186.902 582.959 187.002 580.767 187.03 579.417L186.467 579.258C184.39 583.535 181.994 586.932 179.278 589.448C178.153 589.556 176.783 589.381 175.166 588.924C173.795 588.536 172.523 588.014 171.352 587.359C170.177 586.722 169.345 586.031 168.855 585.284C169.01 583.463 169.065 580.945 169.019 577.729C168.973 574.513 168.819 571.419 168.557 568.446C168.314 565.479 167.992 563.34 167.591 562.031L165.815 561.133Z" fill="url(#paint4_linear_11_112)"></path>
<path d="M213.31 580.653C213.839 577.316 214.866 574.444 216.394 572.039C217.921 569.633 219.965 567.896 222.525 566.827C225.108 565.743 228.143 565.543 231.631 566.227C233.452 566.584 235.238 567.163 236.988 567.964C238.742 568.746 240.171 569.763 241.277 571.014C242.297 572.188 242.942 573.608 243.212 575.272C243.504 576.92 243.5 578.69 243.201 580.581C243.002 581.834 242.694 583.097 242.275 584.367C241.984 584.708 241.452 585.13 240.681 585.635C239.912 586.121 239.03 586.575 238.035 586.996C237.039 587.417 236.094 587.709 235.199 587.872C234.384 587.771 233.546 587.637 232.684 587.468C231.17 587.171 229.647 586.802 228.116 586.363C226.585 585.923 225.249 585.502 224.107 585.099C224.001 586.768 224.273 588.294 224.924 589.674C225.574 591.055 226.82 591.926 228.66 592.287C228.832 592.321 229.113 592.356 229.503 592.393C230.69 592.506 232.1 592.465 233.732 592.268C235.386 592.055 237.042 591.764 238.702 591.393C239.314 592.269 239.735 593.108 239.963 593.908C240.192 594.709 240.265 595.807 240.183 597.203C239.478 597.781 238.376 598.44 236.876 599.18C235.394 599.924 233.631 600.513 231.586 600.947C229.544 601.362 227.479 601.364 225.39 600.954C222.247 600.337 219.675 599.047 217.674 597.083C215.695 595.104 214.338 592.689 213.604 589.84C212.892 586.976 212.794 583.913 213.31 580.653ZM232.878 577.63C232.656 577.288 232.241 576.978 231.632 576.7C231.028 576.402 230.38 576.185 229.69 576.05C229.134 575.941 228.561 575.878 227.971 575.862C227.4 575.849 227.048 575.89 226.914 575.983C226.058 577.147 225.414 578.533 224.982 580.138L232.777 580.892L232.878 577.63Z" fill="url(#paint5_linear_11_112)"></path>
<path d="M249.349 596.452C249.437 595.617 249.672 593.57 250.054 590.312C250.787 583.909 251.185 580.407 251.248 579.805L248.621 579.019C248.37 577.864 248.218 576.791 248.165 575.8C248.112 574.808 248.138 573.817 248.242 572.827C248.285 572.419 248.327 572.109 248.369 571.898C248.729 571.65 249.279 571.367 250.019 571.05C250.76 570.733 251.62 570.481 252.602 570.294C253.586 570.087 254.572 570.048 255.559 570.177C257.864 570.478 259.476 571.209 260.394 572.373C261.331 573.539 261.696 575.112 261.487 577.093C261.361 578.298 261.043 579.822 260.535 581.665C260.048 583.492 259.608 584.784 259.214 585.54L260.242 585.851L262.678 579.493C263.765 576.622 264.956 574.631 266.251 573.52C267.548 572.39 268.923 571.919 270.375 572.109C271.324 572.232 272.248 572.5 273.147 572.913C274.066 573.328 274.754 573.782 275.213 574.275C275.628 575.55 275.731 577.188 275.52 579.188C275.373 580.587 275.091 581.958 274.675 583.302C274.261 584.626 273.797 585.678 273.283 586.458L267.268 584.847C265.89 586.006 264.379 587.67 262.738 589.838C261.098 591.988 259.758 593.989 258.719 595.842L258.531 597.353L264.308 596.748C265.103 598.328 265.473 600.129 265.418 602.15C265.406 602.266 264.92 602.685 263.96 603.407C263.001 604.129 261.767 604.755 260.258 605.287C258.771 605.802 257.107 605.94 255.267 605.7C253.369 605.453 251.834 604.741 250.662 603.564C249.512 602.37 249.025 600.554 249.203 598.116C249.215 597.822 249.263 597.268 249.349 596.452Z" fill="url(#paint6_linear_11_112)"></path>
<path d="M281.059 565.738C281.165 564.023 281.807 562.672 282.983 561.685C284.179 560.699 286.004 560.301 288.458 560.489C290.911 560.677 292.66 561.35 293.704 562.508C294.767 563.666 295.245 565.104 295.139 566.819C295.078 567.794 294.682 568.664 293.95 569.431C293.237 570.199 292.32 570.784 291.199 571.188C290.08 571.572 288.936 571.719 287.767 571.63C286.501 571.533 285.34 571.169 284.283 570.54C283.247 569.892 282.434 569.125 281.843 568.237C281.272 567.351 281.011 566.518 281.059 565.738ZM278.591 582.354C278.397 581.379 278.276 580.499 278.227 579.711C278.179 578.905 278.182 578.072 278.235 577.215L278.315 576.398C278.756 575.903 279.422 575.425 280.311 574.965C281.221 574.486 282.262 574.106 283.434 573.824C284.626 573.543 285.845 573.451 287.091 573.546C289.817 573.755 291.717 574.518 292.79 575.835C293.863 577.151 294.319 579.105 294.158 581.698C294.061 583.258 293.711 585.277 293.108 587.758C292.523 590.24 291.846 592.646 291.075 594.976C290.325 597.289 289.695 598.934 289.184 599.914L289.239 599.977L293.66 598.73C294.398 599.452 294.937 600.228 295.277 601.057C295.637 601.888 295.842 602.834 295.894 603.896C295.885 604.032 295.422 604.564 294.503 605.493C293.586 606.402 292.39 607.231 290.915 607.979C289.461 608.71 287.809 609.004 285.959 608.862C284.09 608.719 282.602 608.095 281.496 606.992C280.41 605.89 279.943 604.111 280.096 601.655C280.273 598.789 280.539 595.754 280.895 592.549C281.25 589.345 281.686 586.245 282.205 583.248L278.591 582.354Z" fill="url(#paint7_linear_11_112)"></path>
<path d="M303.689 599.225C303.727 596.041 303.795 593.64 303.892 592.02C303.99 590.381 304.224 587.981 304.593 584.822L301.201 584.333C300.806 583.057 300.546 581.92 300.421 580.922C300.316 579.925 300.272 578.635 300.291 577.053C300.607 576.784 301.128 576.47 301.855 576.109C302.602 575.73 303.485 575.411 304.504 575.152C305.523 574.874 306.55 574.743 307.585 574.758C309.948 574.793 311.612 575.326 312.576 576.356C313.56 577.386 314.04 578.917 314.015 580.948C314.002 582.081 313.817 583.611 313.462 585.54C312.878 588.637 312.585 590.264 312.584 590.42C312.582 590.518 312.65 590.616 312.785 590.716C312.921 590.796 313.067 590.837 313.223 590.84C313.399 590.842 313.517 590.776 313.577 590.64C314.395 587.546 315.208 584.96 316.014 582.882C316.82 580.804 318.024 578.966 319.625 577.368C321.226 575.771 323.286 574.991 325.806 575.028C328.93 575.074 331.165 576.065 332.509 577.999C333.853 579.913 334.508 582.316 334.474 585.206C334.443 587.784 334.11 590.27 333.476 592.663C332.842 595.037 332.061 597.516 331.131 600.1C331.172 600.003 331.03 600.382 330.708 601.236L330.765 601.296L335.063 599.601C336.571 600.932 337.439 602.684 337.667 604.855C337.665 604.992 337.219 605.542 336.329 606.506C335.458 607.469 334.304 608.361 332.869 609.179C331.433 609.998 329.787 610.393 327.932 610.366C326.077 610.339 324.569 609.818 323.41 608.805C322.25 607.791 321.684 606.084 321.713 603.681C321.736 601.767 321.844 599.21 322.039 596.01C322.233 592.809 322.42 590.233 322.6 588.283C322.099 587.728 321.477 587.426 320.736 587.376C320.042 588.245 319.015 589.988 317.656 592.605C316.296 595.221 315.335 597.18 314.773 598.48C314.73 598.753 314.708 599.017 314.705 599.271C314.693 600.247 314.824 601.567 315.097 603.232C315.37 604.877 315.713 606.415 316.126 607.847C315.766 608.506 315.037 609.052 313.938 609.485C312.839 609.918 311.489 610.123 309.887 610.099C308.442 610.077 307.282 609.943 306.406 609.696C305.549 609.449 304.947 609.196 304.598 608.936C304.25 608.658 304.076 608.489 304.077 608.431C304.059 608.255 304.016 607.795 303.947 607.052C303.878 606.289 303.812 605.233 303.75 603.884C303.688 602.516 303.668 600.963 303.689 599.225Z" fill="url(#paint8_linear_11_112)"></path>
<path d="M358.93 613.228C360.236 613.152 361.36 612.939 362.302 612.591C362.581 612.281 362.769 611.928 362.868 611.531C362.967 611.153 363.009 610.799 362.994 610.467C362.977 610.116 362.935 609.854 362.869 609.682C362.803 609.529 362.698 609.389 362.555 609.26C361.73 609.171 360.76 609.13 359.646 609.136C358.553 609.161 357.898 609.17 357.683 609.163C354.967 609.204 352.754 609.138 351.045 608.964C349.335 608.77 347.853 608.231 346.599 607.345C345.344 606.441 344.671 605.013 344.579 603.062C344.529 602.008 344.824 601.003 345.463 600.046C346.101 599.07 346.95 598.199 348.009 597.433C345.743 596.645 343.894 595.374 342.462 593.619C341.049 591.843 340.273 589.492 340.135 586.565C339.998 583.658 340.629 581.284 342.028 579.441C343.446 577.578 345.229 576.222 347.379 575.373C349.529 574.523 351.735 574.032 353.996 573.9C355.42 573.817 356.82 573.872 358.198 574.066C359.576 574.259 360.862 574.575 362.055 575.014L360.447 567.655C361.603 566.863 363.068 566.416 364.842 566.312C366.129 566.237 367.338 566.382 368.47 566.746C369.601 567.11 370.478 567.675 371.101 568.441C371.149 568.634 371.183 568.945 371.204 569.374C371.279 570.974 371.071 572.776 370.579 574.781C370.105 576.765 369.195 578.393 367.847 579.665C368.615 581.028 369.037 582.52 369.114 584.139C369.226 586.519 368.871 588.741 368.049 590.804C367.247 592.866 365.823 594.592 363.777 595.983C361.73 597.355 359.02 598.139 355.647 598.336C354.672 598.393 353.656 598.394 352.597 598.338C352.585 599.317 352.865 600.279 353.437 601.224C356.045 600.563 358.158 600.175 359.776 600.061L361.763 599.916C364.454 599.759 366.499 599.806 367.899 600.056C369.437 600.338 370.608 601.111 371.41 602.375C372.232 603.638 372.688 605.205 372.776 607.078C372.914 610.005 372.133 612.515 370.433 614.61C368.753 616.723 366.513 618.351 363.712 619.492C360.931 620.633 357.952 621.296 354.773 621.482C351.829 621.654 349.183 621.309 346.836 620.449C344.488 619.588 342.949 617.849 342.22 615.231C342.757 612.95 343.906 611.181 345.665 609.924C348.171 611.245 350.55 612.152 352.802 612.647C355.074 613.14 357.117 613.334 358.93 613.228ZM356.096 591.062C357.5 590.98 358.315 590.844 358.54 590.655C359.017 589.571 359.229 588.473 359.177 587.361C359.123 586.209 358.808 585.142 358.234 584.158C357.97 583.959 357.397 583.826 356.514 583.76C355.651 583.693 354.712 583.689 353.698 583.748C352.431 583.822 351.586 583.95 351.165 584.131C350.611 585.239 350.36 586.34 350.411 587.432C350.464 588.544 350.796 589.581 351.408 590.543C351.85 590.791 352.503 590.959 353.368 591.045C354.251 591.111 355.16 591.117 356.096 591.062Z" fill="url(#paint9_linear_11_112)"></path>
<path d="M392.927 598.97C392.799 597.982 392.854 596.955 393.091 595.889C393.328 594.823 393.774 593.783 394.431 592.769C397.407 593.559 399.978 594.118 402.146 594.444C404.333 594.767 406.536 594.752 408.754 594.398C409.159 594.333 409.569 594.228 409.983 594.083C410.417 593.935 410.75 593.773 410.983 593.597C411.052 593.369 411.094 593.085 411.11 592.747C411.123 592.389 411.116 592.103 411.088 591.89C410.966 590.941 410.408 590.2 409.414 589.666C408.42 589.133 407.137 588.646 405.565 588.205L404.488 587.872C401.403 586.843 398.907 585.877 396.999 584.975C395.109 584.051 393.431 582.718 391.967 580.975C390.519 579.209 389.613 576.912 389.248 574.084C388.714 569.938 389.434 566.433 391.407 563.568C393.4 560.7 396.913 558.864 401.947 558.06C406.248 557.374 409.686 557.092 412.261 557.215C413.382 557.669 414.372 558.173 415.231 558.728C416.107 559.26 416.962 559.944 417.798 560.78C417.973 562.136 418.028 563.629 417.962 565.261C417.914 566.87 417.743 568.37 417.449 569.761C417.176 571.149 416.816 572.175 416.37 572.84C415.954 573.123 415.483 573.367 414.958 573.569C414.43 573.752 413.771 573.907 412.98 574.033C412.151 574.165 411.469 574.215 410.933 574.182C410.397 574.149 409.89 574.032 409.411 573.831L407.736 567.931C406.577 567.799 405.363 567.766 404.091 567.83C402.818 567.875 401.96 567.943 401.519 568.033C400.848 568.476 400.416 569.02 400.223 569.663C400.048 570.285 400.012 571.002 400.117 571.816C400.229 572.687 400.558 573.406 401.103 573.971C401.665 574.514 402.31 574.935 403.037 575.234C403.765 575.533 404.691 575.85 405.817 576.184L407.172 576.62C410.118 577.633 412.451 578.556 414.172 579.388C415.894 580.22 417.392 581.385 418.667 582.882C419.959 584.356 420.757 586.265 421.058 588.609C421.41 591.34 421 593.808 419.827 596.011C418.652 598.195 417.002 599.902 414.877 601.131C413.724 601.809 412.429 602.371 410.99 602.818C409.552 603.265 407.868 603.643 405.94 603.951C404.628 604.16 403.199 604.22 401.652 604.131C400.105 604.042 398.564 603.694 397.03 603.089C395.515 602.481 394.243 601.547 393.215 600.288C393.09 599.932 392.994 599.493 392.927 598.97Z" fill="url(#paint10_linear_11_112)"></path>
<path d="M427.656 583.131C427.1 579.996 426.642 577.13 426.28 574.532L423.064 574.669C422.645 573.762 422.324 572.953 422.099 572.244C421.874 571.534 421.688 570.765 421.541 569.938L421.496 569.349C421.506 569.067 421.495 568.84 421.464 568.667L425.45 566.832C425.334 565.619 425.315 564.224 425.392 562.649C425.469 561.074 425.636 559.888 425.891 559.093C426.42 558.497 427.093 557.99 427.91 557.57C428.728 557.151 429.633 556.832 430.625 556.615C431.464 556.43 432.29 556.339 433.103 556.34C433.931 556.318 434.665 556.376 435.304 556.516C435.478 557.157 435.639 557.901 435.789 558.747C436.035 560.132 436.246 561.714 436.423 563.493L441.295 561.464C442.219 562.54 442.809 563.799 443.065 565.241C443.242 566.241 443.278 567.172 443.174 568.034C443.088 568.892 442.925 569.877 442.686 570.988C441.465 571.477 439.762 571.99 437.579 572.53C437.868 575.723 438.093 580.459 438.255 586.737L438.285 587.749L438.353 587.795L444.704 584.212C446.305 585.079 447.474 586.7 448.212 589.076C448.236 589.21 447.729 589.981 446.69 591.388C445.667 592.772 444.315 594.147 442.635 595.515C440.952 596.864 439.023 597.777 436.848 598.255C433.052 599.089 430.616 597.196 429.539 592.578C428.986 590.242 428.358 587.093 427.656 583.131Z" fill="url(#paint11_linear_11_112)"></path>
<path d="M448.121 569.406C447.481 568.108 447.04 567.149 446.797 566.529C446.554 565.908 446.281 564.942 445.978 563.628C446.84 562.246 447.849 561.106 449.003 560.209C450.153 559.292 451.526 558.606 453.122 558.15C457.968 556.766 460.958 558.539 462.095 563.468C462.398 564.781 462.626 566.339 462.782 568.14C462.955 569.937 463.129 572.21 463.303 574.959C463.325 575.318 463.388 576.284 463.49 577.857C463.593 579.431 463.713 580.735 463.852 581.77C464.25 582.022 464.7 582.147 465.2 582.146C465.425 582.082 465.834 581.468 466.427 580.305C467.034 579.117 467.651 577.714 468.278 576.094C468.906 574.475 469.388 573.008 469.726 571.695C469.249 568.93 468.879 566.369 468.615 564.01L465.519 564.255C465.055 563.373 464.693 562.584 464.433 561.888C464.172 561.191 463.947 560.434 463.759 559.615L463.603 558.808C464.077 557.739 464.909 556.66 466.099 555.57C467.289 554.479 468.757 553.685 470.503 553.186C475.349 551.802 478.34 553.575 479.476 558.504C479.937 560.502 480.216 563.232 480.313 566.694C480.406 570.136 480.395 573.648 480.28 577.231L483.191 574.878C483.871 575.313 484.517 575.899 485.128 576.638C485.753 577.352 486.249 578.244 486.616 579.316C486.485 579.962 486.081 580.859 485.404 582.005C484.723 583.133 483.823 584.221 482.704 585.271C481.585 586.321 480.331 587.045 478.941 587.441C477.382 587.887 476.073 587.764 475.013 587.072C473.967 586.357 473.275 585.266 472.937 583.801C472.85 583.42 472.764 582.613 472.679 581.379C472.614 580.14 472.594 579.274 472.621 578.779L471.772 578.748C471.601 582.347 470.885 585.229 469.622 587.395C468.379 589.555 466.706 590.936 464.602 591.537C461.579 592.4 459.214 592 457.51 590.337C455.801 588.654 454.6 586.31 453.907 583.302C452.603 577.65 451.703 572.876 451.206 568.982L448.121 569.406Z" fill="url(#paint12_linear_11_112)"></path>
<path d="M487.189 566.764C486.346 563.918 485.924 561.052 485.923 558.166C485.94 555.274 486.536 552.688 487.711 550.409C488.905 548.123 490.775 546.513 493.324 545.578C496.185 544.528 499.191 544.452 502.344 545.351L502.701 544.909C501.997 542.738 501.143 540.85 500.139 539.246L494.448 540.93C494.091 540.687 493.743 540.265 493.402 539.663C493.055 539.043 492.777 538.377 492.566 537.665C492.283 536.71 492.149 535.846 492.164 535.072C493.025 533.863 494.257 532.736 495.859 531.692C497.46 530.647 499.123 529.809 500.846 529.176C502.753 528.477 504.314 528.361 505.53 528.828C506.741 529.277 507.755 530.264 508.573 531.791C509.404 533.293 510.249 535.495 511.109 538.397C512.241 542.218 513.369 546.61 514.494 551.575C515.619 556.539 516.389 560.648 516.804 563.901L516.835 564.419L519.609 561.844C520.313 562.229 520.992 562.769 521.645 563.464C522.31 564.133 522.859 564.991 523.291 566.036C523.201 566.692 522.855 567.619 522.254 568.815C521.647 569.993 520.82 571.147 519.773 572.279C518.726 573.411 517.524 574.226 516.167 574.723C514.645 575.282 513.336 575.254 512.239 574.639C511.155 573.999 510.399 572.957 509.972 571.515C509.861 571.141 509.725 570.339 509.565 569.111C509.423 567.876 509.349 567.01 509.344 566.514L508.444 566.564C508.502 570.259 508.002 573.204 506.945 575.398C505.887 577.593 504.221 579.107 501.948 579.941C499.509 580.836 497.312 580.729 495.357 579.619C493.415 578.484 491.779 576.769 490.449 574.475C489.119 572.181 488.032 569.611 487.189 566.764ZM505.907 559.335C505.817 558.621 505.639 557.814 505.373 556.915C505.201 556.334 505.01 555.792 504.799 555.288C504.608 554.777 504.451 554.419 504.329 554.215C503.435 553.941 502.487 553.863 501.485 553.981C500.502 554.093 499.625 554.29 498.855 554.573C498.378 554.748 497.879 554.983 497.356 555.279C497.101 555.788 497.049 556.71 497.2 558.045C497.346 559.362 497.65 560.798 498.11 562.352C498.604 564.019 499.193 565.598 499.879 567.09C500.578 568.557 501.269 569.654 501.951 570.379C502.245 570.271 502.677 569.604 503.249 568.377C503.833 567.124 504.384 565.656 504.901 563.971C505.413 562.267 505.748 560.722 505.907 559.335Z" fill="url(#paint13_linear_11_112)"></path>
<path d="M523.111 553.28C521.962 550.103 521.453 547.033 521.583 544.072C521.714 541.111 522.595 538.422 524.227 536.005C525.871 533.561 528.314 531.613 531.558 530.16C533.252 529.401 535.021 528.854 536.867 528.518C538.707 528.164 540.388 528.2 541.909 528.628C543.322 529.041 544.538 529.884 545.557 531.156C546.588 532.402 547.428 533.925 548.079 535.725C548.511 536.919 548.855 538.184 549.11 539.521C549.029 539.984 548.786 540.658 548.381 541.544C547.97 542.411 547.449 543.317 546.817 544.262C546.185 545.206 545.533 546.011 544.862 546.674C544.133 547.065 543.368 547.439 542.566 547.799C541.157 548.43 539.708 549.004 538.218 549.522C536.728 550.04 535.409 550.46 534.262 550.782C534.969 552.279 535.924 553.431 537.127 554.237C538.329 555.043 539.786 555.062 541.497 554.296C541.658 554.224 541.91 554.09 542.253 553.893C543.3 553.296 544.46 552.435 545.731 551.311C547.013 550.16 548.26 548.94 549.471 547.651C550.401 548.045 551.152 548.52 551.726 549.074C552.299 549.628 552.884 550.529 553.48 551.777C553.166 552.686 552.558 553.898 551.656 555.412C550.772 556.918 549.578 558.456 548.074 560.026C546.564 561.577 544.837 562.788 542.894 563.658C539.971 564.968 537.205 565.364 534.594 564.847C531.995 564.304 529.71 563.023 527.737 561.004C525.775 558.959 524.233 556.384 523.111 553.28ZM538.038 539.23C537.689 539.067 537.194 539.043 536.552 539.16C535.904 539.258 535.26 539.451 534.618 539.738C534.101 539.97 533.592 540.251 533.09 540.582C532.606 540.906 532.331 541.147 532.264 541.305C532.103 542.807 532.224 544.374 532.629 546.007L539.508 542.093L538.038 539.23Z" fill="url(#paint14_linear_11_112)"></path>
<path d="M560.275 543.917C559.012 540.994 558.093 538.771 557.519 537.246C556.937 535.703 556.165 533.401 555.202 530.34L552.032 531.541C551.167 530.569 550.476 529.658 549.961 528.808C549.462 527.949 548.899 526.794 548.271 525.341C548.438 524.943 548.767 524.403 549.257 523.721C549.756 523.012 550.399 522.292 551.186 521.562C551.965 520.814 552.811 520.195 553.724 519.707C555.807 518.591 557.481 518.269 558.745 518.741C560.026 519.203 561.069 520.366 561.875 522.231C562.324 523.27 562.786 524.756 563.261 526.688C564.011 529.797 564.417 531.423 564.479 531.566C564.517 531.656 564.616 531.713 564.776 531.738C564.927 531.745 565.072 531.712 565.209 531.638C565.364 531.555 565.441 531.437 565.438 531.284C564.895 528.065 564.553 525.312 564.413 523.024C564.272 520.737 564.578 518.476 565.33 516.242C566.081 514.007 567.568 512.295 569.789 511.106C572.544 509.631 574.904 509.449 576.868 510.561C578.825 511.654 580.377 513.528 581.524 516.181C582.547 518.548 583.268 520.977 583.687 523.468C584.098 525.941 584.423 528.582 584.662 531.39C584.658 531.282 584.688 531.696 584.754 532.632L584.828 532.659L587.902 529.026C589.764 529.508 591.237 530.684 592.321 532.555C592.375 532.68 592.209 533.399 591.821 534.71C591.451 536.012 590.804 537.385 589.88 538.829C588.957 540.273 587.677 541.432 586.041 542.308C584.405 543.184 582.873 543.441 581.445 543.08C580.017 542.719 578.826 541.436 577.873 539.23C577.114 537.473 576.167 535.088 575.034 532.074C573.901 529.06 573.016 526.62 572.379 524.753C571.715 524.491 571.047 524.517 570.378 524.831C570.124 525.961 569.934 528.049 569.809 531.096C569.685 534.143 569.641 536.397 569.678 537.856C569.752 538.126 569.839 538.377 569.94 538.61C570.327 539.506 570.979 540.647 571.896 542.033C572.805 543.401 573.732 544.638 574.677 545.743C574.63 546.519 574.214 547.371 573.428 548.3C572.642 549.228 571.543 550.071 570.131 550.826C568.857 551.509 567.786 551.95 566.918 552.149C566.067 552.34 565.437 552.401 565.026 552.334C564.608 552.249 564.387 552.18 564.364 552.126C564.277 551.974 564.052 551.576 563.688 550.931C563.317 550.269 562.83 549.338 562.226 548.137C561.615 546.919 560.965 545.512 560.275 543.917Z" fill="url(#paint15_linear_11_112)"></path>
<path d="M593.376 518.964C591.957 516.114 590.705 513.493 589.621 511.099L586.656 512.277C586.004 511.537 585.471 510.86 585.057 510.247C584.643 509.634 584.249 508.951 583.875 508.2L583.663 507.644C583.591 507.369 583.516 507.152 583.437 506.995L586.634 503.925C586.178 502.79 585.759 501.448 585.379 499.9C584.999 498.352 584.814 497.151 584.824 496.3C585.147 495.552 585.63 494.842 586.274 494.171C586.917 493.499 587.671 492.897 588.535 492.364C589.267 491.912 590.012 491.555 590.772 491.292C591.54 491.001 592.242 490.819 592.879 490.746C593.225 491.309 593.59 491.976 593.973 492.745C594.6 494.004 595.252 495.464 595.928 497.127L599.898 493.58C601.07 494.319 601.983 495.344 602.636 496.656C603.089 497.565 603.39 498.453 603.54 499.321C603.706 500.178 603.837 501.183 603.933 502.335C602.932 503.204 601.489 504.255 599.604 505.487C600.79 508.48 602.361 512.985 604.315 519.002L604.635 519.97L604.711 519.992L609.616 514.462C611.36 514.78 612.919 515.967 614.291 518.023C614.352 518.145 614.099 519.055 613.532 520.753C612.974 522.424 612.106 524.194 610.929 526.063C609.744 527.914 608.203 529.425 606.309 530.594C603.001 532.635 600.181 531.598 597.849 527.484C596.661 525.405 595.171 522.565 593.376 518.964Z" fill="url(#paint16_linear_11_112)"></path>
<path d="M618.954 509.894C620.701 509.514 622.091 509.192 623.123 508.927C624.156 508.663 625.245 508.301 626.39 507.84C627.552 507.368 628.639 506.783 629.651 506.083C630.101 505.772 630.399 505.508 630.544 505.289C630.554 505.187 630.537 505.057 630.493 504.899C630.456 504.712 630.394 504.542 630.308 504.388C630.118 504.047 629.776 503.893 629.283 503.927C628.514 503.985 627.186 504.159 625.299 504.447C622.703 504.822 620.588 505.02 618.951 505.04C617.331 505.048 615.74 504.671 614.179 503.906C612.633 503.131 611.299 501.737 610.177 499.724C608.569 496.841 608.091 493.969 608.744 491.108C609.387 488.23 611.468 485.575 614.987 483.144C619.181 480.246 622.766 478.572 625.743 478.122C626.132 478.539 626.535 479.123 626.954 479.873C627.753 481.306 628.362 482.917 628.781 484.707C629.191 486.48 629.259 487.958 628.983 489.14C627.887 489.449 626.303 489.823 624.232 490.261C622.726 490.593 621.535 490.872 620.659 491.099C619.791 491.297 619.026 491.542 618.364 491.834C618.091 492.141 617.948 492.523 617.936 492.981C617.914 493.421 618.022 493.854 618.26 494.281C618.469 494.656 618.75 494.9 619.101 495.011C619.453 495.123 619.8 495.166 620.143 495.142C620.492 495.09 620.982 495.011 621.614 494.906C621.937 494.847 622.24 494.792 622.522 494.739C622.795 494.669 623.051 494.609 623.292 494.562C624.859 494.258 626.104 494.036 627.027 493.895C627.95 493.753 628.887 493.697 629.838 493.725C631.579 493.774 633.127 494.135 634.481 494.806C635.835 495.477 636.897 496.504 637.668 497.886C638.733 499.796 639.142 501.806 638.893 503.915C638.652 505.996 637.911 507.902 636.673 509.632C636.018 510.534 635.23 511.397 634.31 512.222C633.416 513.052 632.31 513.923 630.992 514.833C629.433 515.91 627.65 516.705 625.643 517.218C623.643 517.702 621.79 517.493 620.085 516.592C619.521 515.54 619.145 514.547 618.958 513.613C618.778 512.651 618.776 511.411 618.954 509.894Z" fill="url(#paint17_linear_11_112)"></path>
</g>
<defs>
<filter id="filter0_d_11_112" x="-4" y="0" width="657" height="633.878" filterUnits="userSpaceOnUse" color-interpolation-filters="sRGB">
<feFlood flood-opacity="0" result="BackgroundImageFix"></feFlood>
<feColorMatrix in="SourceAlpha" type="matrix" values="0 0 0 0 0 0 0 0 0 0 0 0 0 0 0 0 0 0 127 0" result="hardAlpha"></feColorMatrix>
<feOffset dy="4"></feOffset>
<feGaussianBlur stdDeviation="2"></feGaussianBlur>
<feComposite in2="hardAlpha" operator="out"></feComposite>
<feColorMatrix type="matrix" values="0 0 0 0 0 0 0 0 0 0 0 0 0 0 0 0 0 0 0.25 0"></feColorMatrix>
<feBlend mode="normal" in2="BackgroundImageFix" result="effect1_dropShadow_11_112"></feBlend>
<feBlend mode="normal" in="SourceGraphic" in2="effect1_dropShadow_11_112" result="shape"></feBlend>
</filter>
<linearGradient id="paint0_linear_11_112" x1="17.6126" y1="486.711" x2="46.7191" y2="502.747" gradientUnits="userSpaceOnUse">
<stop stop-color="#4F51EA"></stop>
<stop offset="1" stop-color="#43AAFE"></stop>
</linearGradient>
<linearGradient id="paint1_linear_11_112" x1="47.9922" y1="507.761" x2="95.5393" y2="529.433" gradientUnits="userSpaceOnUse">
<stop stop-color="#4F51EA"></stop>
<stop offset="1" stop-color="#43AAFE"></stop>
</linearGradient>
<linearGradient id="paint2_linear_11_112" x1="96.9236" y1="534.761" x2="128.568" y2="546.385" gradientUnits="userSpaceOnUse">
<stop stop-color="#4F51EA"></stop>
<stop offset="1" stop-color="#43AAFE"></stop>
</linearGradient>
<linearGradient id="paint3_linear_11_112" x1="131.114" y1="550.144" x2="161.518" y2="559.317" gradientUnits="userSpaceOnUse">
<stop stop-color="#4F51EA"></stop>
<stop offset="1" stop-color="#43AAFE"></stop>
</linearGradient>
<linearGradient id="paint4_linear_11_112" x1="164.203" y1="562.673" x2="209.138" y2="572.931" gradientUnits="userSpaceOnUse">
<stop stop-color="#4F51EA"></stop>
<stop offset="1" stop-color="#43AAFE"></stop>
</linearGradient>
<linearGradient id="paint5_linear_11_112" x1="212.101" y1="575.744" x2="242.361" y2="580.536" gradientUnits="userSpaceOnUse">
<stop stop-color="#4F51EA"></stop>
<stop offset="1" stop-color="#43AAFE"></stop>
</linearGradient>
<linearGradient id="paint6_linear_11_112" x1="245.873" y1="582.19" x2="272.713" y2="585.014" gradientUnits="userSpaceOnUse">
<stop stop-color="#4F51EA"></stop>
<stop offset="1" stop-color="#43AAFE"></stop>
</linearGradient>
<linearGradient id="paint7_linear_11_112" x1="276.489" y1="585.969" x2="295.329" y2="587.137" gradientUnits="userSpaceOnUse">
<stop stop-color="#4F51EA"></stop>
<stop offset="1" stop-color="#43AAFE"></stop>
</linearGradient>
<linearGradient id="paint8_linear_11_112" x1="299.049" y1="587.849" x2="334.985" y2="588.279" gradientUnits="userSpaceOnUse">
<stop stop-color="#4F51EA"></stop>
<stop offset="1" stop-color="#43AAFE"></stop>
</linearGradient>
<linearGradient id="paint9_linear_11_112" x1="338.599" y1="588.204" x2="369.121" y2="586.765" gradientUnits="userSpaceOnUse">
<stop stop-color="#4F51EA"></stop>
<stop offset="1" stop-color="#43AAFE"></stop>
</linearGradient>
<linearGradient id="paint10_linear_11_112" x1="389.37" y1="584.196" x2="418.833" y2="580.4" gradientUnits="userSpaceOnUse">
<stop stop-color="#4F51EA"></stop>
<stop offset="1" stop-color="#43AAFE"></stop>
</linearGradient>
<linearGradient id="paint11_linear_11_112" x1="422.438" y1="578.688" x2="443.747" y2="574.909" gradientUnits="userSpaceOnUse">
<stop stop-color="#4F51EA"></stop>
<stop offset="1" stop-color="#43AAFE"></stop>
</linearGradient>
<linearGradient id="paint12_linear_11_112" x1="447.28" y1="573.313" x2="480.748" y2="565.597" gradientUnits="userSpaceOnUse">
<stop stop-color="#4F51EA"></stop>
<stop offset="1" stop-color="#43AAFE"></stop>
</linearGradient>
<linearGradient id="paint13_linear_11_112" x1="483.803" y1="562.743" x2="516.852" y2="552.954" gradientUnits="userSpaceOnUse">
<stop stop-color="#4F51EA"></stop>
<stop offset="1" stop-color="#43AAFE"></stop>
</linearGradient>
<linearGradient id="paint14_linear_11_112" x1="519.624" y1="549.394" x2="548.745" y2="538.864" gradientUnits="userSpaceOnUse">
<stop stop-color="#4F51EA"></stop>
<stop offset="1" stop-color="#43AAFE"></stop>
</linearGradient>
<linearGradient id="paint15_linear_11_112" x1="551.308" y1="535.165" x2="584.912" y2="520.642" gradientUnits="userSpaceOnUse">
<stop stop-color="#4F51EA"></stop>
<stop offset="1" stop-color="#43AAFE"></stop>
</linearGradient>
<linearGradient id="paint16_linear_11_112" x1="586.903" y1="515.718" x2="606.656" y2="505.877" gradientUnits="userSpaceOnUse">
<stop stop-color="#4F51EA"></stop>
<stop offset="1" stop-color="#43AAFE"></stop>
</linearGradient>
<linearGradient id="paint17_linear_11_112" x1="609.094" y1="501.973" x2="632.485" y2="488.927" gradientUnits="userSpaceOnUse">
<stop stop-color="#4F51EA"></stop>
<stop offset="1" stop-color="#43AAFE"></stop>
</linearGradient>
</defs>
</svg></svg><style>@media (prefers-color-scheme: light) { :root { filter: none; } }
@media (prefers-color-scheme: dark) { :root { filter: none; } }
</style></svg>